<?xml version="1.0" encoding="UTF-8" standalone="no"?>
<!-- Created with Inkscape (http://www.inkscape.org/) -->

<svg
        width="135.46666mm"
        height="135.46666mm"
        viewBox="0 0 135.46666 135.46666"
        version="1.1"
        id="svg1"
        xml:space="preserve"
        xmlns:xlink="http://www.w3.org/1999/xlink"
        xmlns="http://www.w3.org/2000/svg"
        xmlns:svg="http://www.w3.org/2000/svg"><defs
     id="defs1"><linearGradient
       id="linearGradient1464"><stop
         id="stop1460"
         offset="0"
         style="stop-color:#160023;stop-opacity:0.98823529;" /><stop
        id="stop1462"
        offset="1"
        style="stop-color:#912cc1;stop-opacity:0.98823529;" /></linearGradient><linearGradient
        xlink:href="#linearGradient1464"
        id="linearGradient1458"
        gradientUnits="userSpaceOnUse"
        gradientTransform="matrix(0.26458331,0,0,0.26458331,433.53125,320.14134)"
        x1="-329.08163"
        y1="431.07141"
        x2="-136.09354"
        y2="-105.65479" /></defs><g
        id="layer1"
        transform="translate(-300.05884,-291.25766)"><g
       id="g2"><rect
         ry="17.201063"
         y="291.25766"
         x="300.05884"
         height="135.46666"
         width="135.46666"
         id="rect1432"
         style="opacity:0.988;fill:url(#linearGradient1458);fill-opacity:1;stroke:none;stroke-width:0.439418;stroke-linecap:square;stroke-linejoin:round;stroke-miterlimit:4;stroke-dasharray:none;stroke-dashoffset:0;stroke-opacity:0.984849;paint-order:stroke markers fill" /><path
        d="m 328.07166,333.40274 -2.65811,5.23092 q -0.19097,-1.66746 -0.87828,-2.74777 a 4.1456798,4.1456798 0 0 0 -0.52166,-0.66373 3.8216758,3.8216758 0 0 0 -2.28841,-1.13095 5.3258348,5.3258348 0 0 0 -0.73214,-0.0486 5.4972979,5.4972979 0 0 0 -1.90676,0.31673 4.7511861,4.7511861 0 0 0 -2.25086,1.75859 7.1243047,7.1243047 0 0 0 -1.00898,2.11228 q -0.29023,0.96503 -0.40377,2.1283 a 16.224947,16.224947 0 0 0 -0.0727,1.57285 14.680324,14.680324 0 0 0 0.28877,3.0552 q 0.9592,4.48714 5.10314,5.08363 a 9.4485171,9.4485171 0 0 0 1.3458,0.0914 h 2.2884 v -7.37727 h -3.58209 q -1.1656,0 -1.6701,-0.1278 a 2.0304836,2.0304836 0 0 1 -0.57901,-0.25239 2.7867841,2.7867841 0 0 1 -0.39475,-0.30217 v -0.35515 a 3.2918579,3.2918579 0 0 0 0.47771,0.30101 2.4290115,2.4290115 0 0 0 0.54584,0.20348 3.1841476,3.1841476 0 0 0 0.31701,0.0556 q 0.34002,0.0442 0.83985,0.0585 a 17.90086,17.90086 0 0 0 0.50624,0.007 h 3.5393 v -0.76765 h -3.95151 -0.63985 q -2.07008,0 -2.11666,-1.4669 a 2.1521671,2.1521671 0 0 1 -10e-4,-0.0681 1.6721288,1.6721288 0 0 1 0.0946,-0.57028 1.4936791,1.4936791 0 0 1 0.26084,-0.45326 q 0.35544,-0.42647 0.85265,-0.42647 a 0.8971972,0.8971972 0 0 1 0.64481,0.26811 1.1714216,1.1714216 0 0 1 0.002,0.002 0.92980139,0.92980139 0 0 1 0.20349,0.285 0.85556866,0.85556866 0 0 1 0.0736,0.35457 q 0,0.31381 -0.1144,0.49518 a 0.51293364,0.51293364 0 0 1 -0.34031,0.22997 l -0.34118,0.0711 q -0.12168,0.0303 -0.15661,0.0897 a 0.10159695,0.10159695 0 0 0 -0.014,0.0524 0.1330367,0.1330367 0 0 0 0.0736,0.11761 q 0.10155,0.0608 0.34349,0.0667 a 2.1836068,2.1836068 0 0 0 0.0518,5.8e-4 h 0.48324 9.38155 l -1.96148,1.91899 v 7.00757 l 1.81943,1.56355 h -7.26346 -1.43575 a 12.232099,12.232099 0 0 1 -1.21683,-0.0571 q -1.01247,-0.10133 -1.76819,-0.38368 a 5.9461876,5.9461876 0 0 1 -1.11234,-0.56301 q -0.49516,-0.31556 -0.9953,-0.74873 a 10.760544,10.760544 0 0 1 -0.28033,-0.2518 8.6494236,8.6494236 0 0 1 -2.76495,-5.48653 12.159904,12.159904 0 0 1 -0.0923,-1.52104 12.228897,12.228897 0 0 1 0.33391,-2.94224 8.2776777,8.2776777 0 0 1 2.367,-4.13637 7.8739098,7.8739098 0 0 1 5.60035,-2.23163 9.9850305,9.9850305 0 0 1 1.35017,0.0978 q 0.68323,0.0934 1.44069,0.27597 a 18.647845,18.647845 0 0 1 0.53535,0.13769 38.480212,38.480212 0 0 0 0.77697,0.20495 q 1.27564,0.32109 1.75306,0.32109 0.89544,0 1.81943,-0.455 z m 4.54858,1.25089 -0.11353,-0.0425 a 14.243661,14.243661 0 0 1 7.24918,-1.94752 q 3.01356,0 4.96778,1.30795 1.9545,1.30767 1.9545,3.32593 a 3.9200706,3.9200706 0 0 1 -1.01451,2.63832 5.2612087,5.2612087 0 0 1 -0.26462,0.28295 6.3284134,6.3284134 0 0 1 -1.6241,1.15309 q -0.72922,0.36824 -1.61594,0.6186 a 11.142188,11.142188 0 0 1 -0.25676,0.069 25.003623,25.003623 0 0 0 2.4063,4.85861 27.900737,27.900737 0 0 0 0.2588,0.40056 23.523335,23.523335 0 0 0 1.26428,1.75102 q 0.65908,0.82472 1.31931,1.4669 a 11.425437,11.425437 0 0 0 0.7924,0.70535 l -0.2131,0.0711 a 18.318892,18.318892 0 0 0 -3.38559,1.57198 20.88618,20.88618 0 0 0 -0.76504,0.47481 l -0.21337,0.14205 -0.0711,-0.45471 a 52.989364,52.989364 0 0 0 -0.85877,-4.19284 q -0.5138,-2.05668 -1.15977,-3.80799 a 28.137991,28.137991 0 0 0 -0.52575,-1.32367 l -0.0568,-0.14236 q -0.66663,0.30916 -1.64186,0.53303 a 15.964405,15.964405 0 0 1 -0.98801,0.19213 l -0.11354,0.014 v 5.31623 l 2.50179,2.67238 h -7.34904 l -0.22736,-0.38368 h 6.76596 l -2.06105,-2.18914 v -5.72844 l 0.29867,-0.0425 a 12.69962,12.69962 0 0 0 1.14115,-0.17001 q 0.88963,-0.1764 1.57374,-0.46955 a 9.1376129,9.1376129 0 0 1 -0.0294,-0.0596 q -0.0585,-0.11906 -0.0702,-0.1537 l -0.14206,-0.41221 a 0.55310665,0.55310665 0 0 0 -0.009,-0.0227 q -0.014,-0.0366 -0.0433,-0.10386 a 7.4564598,7.4564598 0 0 0 -0.0193,-0.0439 7.3341942,7.3341942 0 0 1 -0.51874,0.12633 q -0.86256,0.18223 -2.45755,0.38456 a 76.839614,76.839614 0 0 1 -0.34991,0.0434 l -0.15633,0.0285 v 6.33947 l 1.62032,1.69164 h -6.28271 l 1.84795,-1.69164 v -4.77593 l -0.11382,0.0143 a 16.546039,16.546039 0 0 0 -0.78542,0.19534 12.630918,12.630918 0 0 0 -0.7071,0.21687 l -0.11353,0.0428 -0.12808,-0.28442 q 0.62559,-0.24162 0.98074,-0.32692 l 0.75339,-0.18485 0.11382,-0.0285 v -0.73912 a 4.9415713,4.9415713 0 0 0 -0.65616,0.0478 q -0.33564,0.0454 -0.71932,0.13332 a 11.992517,11.992517 0 0 0 -0.7141,0.18864 l -0.15632,0.0568 q 0.0265,-0.18602 0.2524,-0.83286 a 27.876284,27.876284 0 0 1 0.032,-0.0911 q 0.0283,-0.0568 0.19883,-0.63957 l 0.0428,-0.12779 a 29.239546,29.239546 0 0 0 0.30189,0.0186 q 0.42647,0.0239 0.69312,0.0239 0.38369,0 0.7106,-0.0425 v -6.9936 a 8.5128935,8.5128935 0 0 0 -1.35045,-0.6681 z m 73.0188,-6.23991 0.15633,0.15632 a 18.041174,18.041174 0 0 0 -2.32421,2.70672 15.910258,15.910258 0 0 0 -0.71759,1.13126 q -1.17957,2.04678 -2.82869,6.39624 l -4.15035,10.85981 1.69135,1.47826 h -6.55286 l 1.87649,-1.54929 -5.2024,-14.81132 -2.18915,-1.8762 h 7.05036 l -2.00427,2.004 4.69063,13.34734 0.55456,-1.32194 -4.19342,-11.82628 1.45002,-1.43575 0.25588,0.27014 -1.26516,1.2509 3.93725,11.24349 3.01355,-8.04537 q 1.27506,-3.38239 1.34609,-4.85104 a 3.4522588,3.4522588 0 0 0 0.004,-0.16651 q 0,-1.45002 -1.06603,-2.48752 l 0.26986,-0.0568 a 23.832201,23.832201 0 0 0 2.38272,-0.57813 q 2.38797,-0.72138 3.80305,-1.82904 a 7.1219758,7.1219758 0 0 0 0.0117,-0.009 z m 18.76284,-0.42648 0.17059,-0.0853 0.0853,0.11382 -0.14205,0.15632 a 33.462952,33.462952 0 0 0 -2.70557,3.1696 27.117072,27.117072 0 0 0 -1.48757,2.2034 1788.1251,1788.1251 0 0 0 -0.29663,0.4815 q -0.36739,0.59589 -0.56797,0.92339 a 200.8304,200.8304 0 0 0 -0.0451,0.0734 l -5.28769,8.45759 v 5.77094 l 2.06105,1.89046 h -6.92227 l 2.04678,-1.89046 v -5.77094 l -3.4115,-5.2452 -0.73913,-1.17987 a 37.637743,37.637743 0 0 0 -0.48208,-0.73563 q -0.52399,-0.77843 -0.93009,-1.27942 a 8.0191731,8.0191731 0 0 0 -0.24366,-0.28761 8.8957016,8.8957016 0 0 0 -0.4646,-0.47946 q -0.53914,-0.51934 -1.33329,-1.15017 a 29.645934,29.645934 0 0 0 -0.11411,-0.0902 l -0.15632,-0.1278 h 7.17815 l -1.76236,1.8334 4.73313,7.13566 0.455,-0.72486 -4.22166,-6.4108 1.49252,-1.42119 0.29839,0.22736 -1.29341,1.19383 3.93725,6.06962 3.18416,-5.01755 q 1.36355,-2.16526 1.37839,-3.24557 a 1.7213261,1.7213261 0 0 0 2.9e-4,-0.0239 1.7216172,1.7216172 0 0 0 -0.15254,-0.67915 q -0.27685,-0.6448 -1.05556,-1.39616 a 37.737011,37.737011 0 0 0 2.8942,-0.81219 q 1.39936,-0.45733 2.57283,-0.98628 a 18.545665,18.545665 0 0 0 1.32716,-0.66053 z m 0.81044,0.76766 v 0.5828 l -0.14235,0.14205 a 20.710642,20.710642 0 0 0 -1.30009,1.35045 16.646473,16.646473 0 0 0 -0.75367,0.9237 22.84214,22.84214 0 0 0 -0.48208,0.66547 q -0.80084,1.14348 -2.0695,3.15824 l -5.14563,8.10214 v 5.57211 l 2.53032,3.05606 h -8.89833 l -0.17059,-0.38368 h 8.31553 l -2.16061,-2.67238 v -5.67167 l 5.24519,-8.27272 0.82442,-1.30767 a 36.726573,36.726573 0 0 1 1.35744,-2.02088 q 1.47185,-2.03193 2.84995,-3.22402 z m -18.80562,0.52574 0.12809,0.32691 q -2.71517,2.11811 -5.60064,9.66598 l -4.00828,10.44731 2.21737,2.58708 h -7.33448 l -0.31294,-0.38368 h 6.80875 l -1.79091,-2.10385 4.07931,-10.64642 0.76765,-2.01855 a 27.945859,27.945859 0 0 1 1.74316,-3.67117 24.666519,24.666519 0 0 1 0.67334,-1.11204 q 1.32134,-2.0561 2.50207,-2.99317 a 5.5133088,5.5133088 0 0 1 0.12751,-0.0984 z m -43.56675,4.32121 v -0.15632 a 6.4978387,6.4978387 0 0 1 2.43686,2.06804 8.8453398,8.8453398 0 0 1 0.77552,1.2864 11.155579,11.155579 0 0 1 1.02732,3.34485 14.536807,14.536807 0 0 1 0.15254,2.14197 14.683526,14.683526 0 0 1 -0.32021,3.15417 q -0.54234,2.46715 -2.00399,4.23738 a 7.4404488,7.4404488 0 0 1 -5.40881,2.78969 9.6391933,9.6391933 0 0 1 -0.69604,0.0248 7.0346432,7.0346432 0 0 1 -3.88892,-1.1854 9.009234,9.009234 0 0 1 -0.63142,-0.44947 v -0.0711 a 6.514723,6.514723 0 0 0 2.58942,1.11931 9.1588639,9.1588639 0 0 0 1.83136,0.17438 7.6980802,7.6980802 0 0 0 3.2479,-0.6716 7.5574746,7.5574746 0 0 0 2.60834,-2.01505 9.4211529,9.4211529 0 0 0 2.08695,-4.51568 13.124056,13.124056 0 0 0 0.20146,-2.34982 15.687269,15.687269 0 0 0 -0.22184,-2.70354 11.53402,11.53402 0 0 0 -0.82267,-2.7405 8.5361823,8.5361823 0 0 0 -1.17171,-1.92627 6.8690023,6.8690023 0 0 0 -1.79206,-1.55626 z m 18.16577,0 v -0.15632 a 6.4978387,6.4978387 0 0 1 2.43686,2.06804 8.8453398,8.8453398 0 0 1 0.77552,1.2864 11.155579,11.155579 0 0 1 1.02761,3.34485 14.536807,14.536807 0 0 1 0.15225,2.14197 14.683526,14.683526 0 0 1 -0.31993,3.15417 q -0.54233,2.46715 -2.00399,4.23738 a 7.4404488,7.4404488 0 0 1 -5.40909,2.78969 9.6391933,9.6391933 0 0 1 -0.69604,0.0248 7.0346432,7.0346432 0 0 1 -3.88863,-1.1854 9.009234,9.009234 0 0 1 -0.63142,-0.44947 v -0.0711 a 6.514723,6.514723 0 0 0 2.58941,1.11931 9.1588639,9.1588639 0 0 0 1.83108,0.17438 7.6980802,7.6980802 0 0 0 3.2479,-0.6716 7.5574746,7.5574746 0 0 0 2.60833,-2.01505 9.4211529,9.4211529 0 0 0 2.08696,-4.51568 13.124056,13.124056 0 0 0 0.20174,-2.34982 15.687269,15.687269 0 0 0 -0.22212,-2.70354 11.53402,11.53402 0 0 0 -0.82267,-2.7405 8.5361823,8.5361823 0 0 0 -1.17141,-1.92627 6.8690023,6.8690023 0 0 0 -1.79236,-1.55626 z m -36.68699,20.68182 -0.12808,0.0853 -0.28413,-0.22735 q 2.71489,-1.77694 5.78521,-2.61562 -4.09387,-2.72914 -6.43903,-8.72744 l -0.0853,-0.24162 q 2.34081,-0.88759 3.42198,-2.27734 a 4.3611004,4.3611004 0 0 0 0.92747,-2.75448 4.0795982,4.0795982 0 0 0 -0.21483,-1.26806 q -0.17263,-0.52895 -0.4844,-1.08963 a 8.8776528,8.8776528 0 0 0 -0.42357,-0.68439 4.2688189,4.2688189 0 0 1 1.43138,3.10758 5.5168021,5.5168021 0 0 1 0.004,0.21862 q 0,3.26945 -4.1646,4.96079 a 15.492517,15.492517 0 0 0 1.6305,3.56579 20.09058,20.09058 0 0 0 1.53909,2.16265 13.988649,13.988649 0 0 0 2.1903,2.14169 17.352702,17.352702 0 0 0 1.40605,0.99967 22.455548,22.455548 0 0 0 -6.11212,2.64384 z m 16.69917,-21.08005 a 7.3534073,7.3534073 0 0 0 -2.71226,-0.48295 9.740208,9.740208 0 0 0 -0.66403,0.0221 6.980497,6.980497 0 0 0 -5.07868,2.50789 7.978709,7.978709 0 0 0 -0.70681,0.98163 q -1.42527,2.33148 -1.42527,5.84139 0,5.01754 3.11282,7.5761 a 7.4171601,7.4171601 0 0 0 4.833,1.73413 9.1012243,9.1012243 0 0 0 0.63258,-0.0216 6.6302932,6.6302932 0 0 0 4.84696,-2.43746 q 1.31465,-1.58508 1.78217,-3.8668 a 13.602639,13.602639 0 0 0 0.25762,-2.72856 17.520963,17.520963 0 0 0 -0.018,-0.80462 q -0.17554,-3.81847 -2.05028,-6.18898 a 6.6634796,6.6634796 0 0 0 -2.80978,-2.13237 z m 18.16605,0 a 7.3534073,7.3534073 0 0 0 -2.71254,-0.48295 9.740208,9.740208 0 0 0 -0.66403,0.0221 6.980497,6.980497 0 0 0 -5.07868,2.50789 7.978709,7.978709 0 0 0 -0.70652,0.98163 q -1.42556,2.33148 -1.42556,5.84139 0,5.01754 3.11312,7.5761 a 7.4171601,7.4171601 0 0 0 4.83269,1.73413 9.1012243,9.1012243 0 0 0 0.63288,-0.0216 6.6302932,6.6302932 0 0 0 4.84667,-2.43746 q 1.31493,-1.58508 1.78217,-3.8668 a 13.602639,13.602639 0 0 0 0.25762,-2.72856 17.520963,17.520963 0 0 0 -0.018,-0.80462 q -0.17555,-3.81847 -2.04999,-6.18898 a 6.6634796,6.6634796 0 0 0 -2.80979,-2.13237 z m -49.63403,7.93183 0.22764,0.32692 -1.46427,1.46399 v 6.66668 l 2.35972,2.71488 -5.64314,-0.0428 -5.11712,0.0571 a 13.687352,13.687352 0 0 1 -0.22735,-0.002 q -0.31993,-0.005 -0.51177,-0.0267 a 3.1687189,3.1687189 0 0 1 -0.98366,-0.28325 q -0.37087,-0.17146 -0.74436,-0.44161 a 5.5371798,5.5371798 0 0 1 -0.0771,-0.0568 h 0.29838 a 4.2420369,4.2420369 0 0 0 0.78658,0.25122 q 0.39125,0.0876 0.85586,0.13129 a 10.7096,10.7096 0 0 0 1.00141,0.0437 l 0.71089,-0.014 h 8.85524 l -1.96149,-2.17488 v -6.96507 z m 7.24947,-6.89403 v 7.66169 a 4.2839565,4.2839565 0 0 0 0.58834,-0.0393 3.7506453,3.7506453 0 0 0 0.19329,-0.0317 v -6.9936 a 5.5680373,5.5680373 0 0 1 0.74029,-0.14527 q 0.37262,-0.049 0.79648,-0.0626 a 10.492724,10.492724 0 0 1 0.33971,-0.006 q 2.77165,0 3.76667,1.81942 a 11.989315,11.989315 0 0 0 -0.6323,-0.4812 q -0.33157,-0.23405 -0.63345,-0.4061 a 4.7849547,4.7849547 0 0 0 -0.58222,-0.28557 4.1858528,4.1858528 0 0 0 -0.8445,-0.23464 q -0.48848,-0.0851 -1.06022,-0.0851 a 7.4896462,7.4896462 0 0 0 -0.71788,0.0326 q -0.3534,0.0341 -0.66256,0.10386 a 4.336065,4.336065 0 0 0 -0.14031,0.0341 v 6.70918 l 0.15632,-0.0285 a 15.555106,15.555106 0 0 0 1.57257,-0.3665 q 1.64127,-0.48091 2.58505,-1.24682 a 3.6114953,3.6114953 0 0 0 1.04916,-1.33444 3.7078523,3.7078523 0 0 0 0.30828,-1.52977 3.2397494,3.2397494 0 0 0 -1.02994,-2.43542 4.0580562,4.0580562 0 0 0 -0.19242,-0.17292 4.3212185,4.3212185 0 0 0 -2.14053,-0.95775 5.9086345,5.9086345 0 0 0 -0.94407,-0.0727 6.6695928,6.6695928 0 0 0 -1.13008,0.0906 q -0.63054,0.1086 -1.15134,0.347 a 3.9011485,3.9011485 0 0 0 -0.23434,0.11674 z m -12.42335,2.13237 v 0.0853 l -0.25589,-0.18486 a 8.2494401,8.2494401 0 0 0 -0.98511,-0.60725 q -0.52633,-0.27219 -1.01917,-0.40814 a 3.5739423,3.5739423 0 0 0 -0.95222,-0.13594 q -1.62061,0 -2.80018,1.15133 a 4.4775438,4.4775438 0 0 0 -0.89748,1.30854 5.9581231,5.9581231 0 0 0 -0.33216,0.9231 q -0.25297,0.92631 -0.33623,2.25057 a 22.250316,22.250316 0 0 0 -0.0405,1.38829 q 0,2.61939 0.47334,4.11482 a 5.7165028,5.7165028 0 0 0 0.0952,0.27743 5.7988866,5.7988866 0 0 0 1.08175,1.78304 7.8820608,7.8820608 0 0 0 1.00783,0.96008 v 0.15661 q -1.64884,-0.98103 -2.3737,-2.76466 -0.49285,-1.21276 -0.65063,-3.01297 a 20.98574,20.98574 0 0 1 -0.0745,-1.827 14.537098,14.537098 0 0 1 0.12372,-1.95916 q 0.13595,-0.99705 0.42123,-1.81681 a 6.2760138,6.2760138 0 0 1 0.72021,-1.46224 q 1.26516,-1.86893 3.55356,-1.86893 1.99002,0 3.24092,1.64885 z m 33.9296,-2.43076 a 3.9593703,3.9593703 0 0 0 -3.78384,2.45347 q -0.88118,1.81128 -1.0017,4.95904 a 26.968024,26.968024 0 0 0 -0.0189,1.03081 19.240251,19.240251 0 0 0 0.16623,2.652 q 0.72137,5.15175 4.56721,5.15175 a 3.6769948,3.6769948 0 0 0 1.76703,-0.41745 q 0.95338,-0.51177 1.58741,-1.65087 a 7.5018728,7.5018728 0 0 0 0.65557,-1.64767 q 0.49577,-1.78858 0.49577,-4.4004 a 28.93068,28.93068 0 0 0 -0.0693,-2.0826 q -0.20785,-2.86771 -1.03955,-4.20012 -1.09602,-1.73791 -3.07236,-1.84156 a 4.8530741,4.8530741 0 0 0 -0.25355,-0.007 z m 18.16577,0 a 3.9593703,3.9593703 0 0 0 -3.78354,2.45347 q -0.8812,1.81128 -1.00171,4.95904 a 26.968024,26.968024 0 0 0 -0.0192,1.03081 19.240251,19.240251 0 0 0 0.16651,2.652 q 0.72109,5.15175 4.56692,5.15175 a 3.6769948,3.6769948 0 0 0 1.76703,-0.41745 q 0.95338,-0.51177 1.58742,-1.65087 a 7.5018728,7.5018728 0 0 0 0.65557,-1.64767 q 0.49576,-1.78858 0.49576,-4.4004 a 28.93068,28.93068 0 0 0 -0.0693,-2.0826 q -0.20785,-2.86771 -1.03926,-4.20012 -1.09632,-1.73791 -3.07265,-1.84156 a 4.8530741,4.8530741 0 0 0 -0.25356,-0.007 z m -15.12398,2.13208 -0.24162,-0.14205 a 7.2803391,7.2803391 0 0 0 -0.95134,-0.44424 q -0.52662,-0.19796 -1.01481,-0.26927 a 3.7101812,3.7101812 0 0 0 -0.53563,-0.0398 3.0036602,3.0036602 0 0 0 -2.81824,1.866 q -0.92018,1.8372 -0.92018,5.48275 a 19.375034,19.375034 0 0 0 0.13594,2.39 q 0.42531,3.40656 2.18098,4.7314 l -0.12779,0.14205 q -1.42149,-1.00898 -2.02554,-2.65083 a 8.2051915,8.2051915 0 0 1 -0.34409,-1.26574 q -0.25792,-1.32804 -0.25996,-3.14748 a 25.758177,25.758177 0 0 1 0,-0.0288 22.454383,22.454383 0 0 1 0.14294,-2.65578 q 0.62704,-5.23327 4.00741,-5.23327 a 4.4463952,4.4463952 0 0 1 1.08321,0.12372 2.8193884,2.8193884 0 0 1 1.68872,1.14144 z m 18.16577,0 -0.24162,-0.14205 a 7.2803391,7.2803391 0 0 0 -0.95134,-0.44424 q -0.52662,-0.19796 -1.01481,-0.26927 a 3.7101812,3.7101812 0 0 0 -0.53564,-0.0398 3.0036602,3.0036602 0 0 0 -2.81823,1.866 q -0.9199,1.8372 -0.9199,5.48275 a 19.375034,19.375034 0 0 0 0.13566,2.39 q 0.42531,3.40656 2.18128,4.7314 l -0.12809,0.14205 q -1.42149,-1.00898 -2.02554,-2.65083 a 8.2051915,8.2051915 0 0 1 -0.34379,-1.26574 q -0.25822,-1.32804 -0.26026,-3.14748 a 25.758177,25.758177 0 0 1 0,-0.0288 22.454383,22.454383 0 0 1 0.14294,-2.65578 q 0.62704,-5.23327 4.00769,-5.23327 a 4.4463952,4.4463952 0 0 1 1.08293,0.12372 2.8193884,2.8193884 0 0 1 1.68872,1.14144 z m -50.91551,-1.94723 0.32692,0.1706 -2.43076,4.77592 -0.34118,-0.15632 z"
        vector-effect="non-scaling-stroke"
        id="path1"
        style="font-size:12px;fill:#ffffff;fill-rule:evenodd;stroke:#ffffff;stroke-width:0.0727772mm;stroke-linecap:round" /><path
        d="m 353.02851,362.50085 -0.13761,-0.0513 a 17.219667,17.219667 0 0 1 8.76415,-2.35442 q 3.64286,0 6.00573,1.58088 2.36286,1.58122 2.36286,4.02117 a 4.7391125,4.7391125 0 0 1 -1.22684,3.18956 6.3604619,6.3604619 0 0 1 -0.31989,0.34172 7.6506436,7.6506436 0 0 1 -1.96308,1.39434 q -0.88159,0.4452 -1.95393,0.74751 a 13.470186,13.470186 0 0 1 -0.31004,0.0838 30.227767,30.227767 0 0 0 2.90905,5.87375 33.730191,33.730191 0 0 0 0.31288,0.48425 28.438194,28.438194 0 0 0 1.52843,2.11687 q 0.79678,0.99667 1.59461,1.77339 a 13.812616,13.812616 0 0 0 0.95831,0.85272 l -0.25797,0.0859 a 22.146359,22.146359 0 0 0 -4.09261,1.90043 25.250044,25.250044 0 0 0 -0.92523,0.57401 l -0.25761,0.17173 -0.0859,-0.54972 a 64.060723,64.060723 0 0 0 -1.03819,-5.06887 q -0.62152,-2.48639 -1.4021,-4.60361 a 34.017016,34.017016 0 0 0 -0.63559,-1.60023 l -0.069,-0.17211 q -0.80593,0.37376 -1.98489,0.6444 a 19.299935,19.299935 0 0 1 -1.1941,0.23192 l -0.13761,0.0173 v 6.42698 l 3.02451,3.23074 h -8.88418 l -0.27484,-0.4642 h 8.17958 l -2.49167,-2.64618 v -6.92531 l 0.36073,-0.0513 a 15.353021,15.353021 0 0 0 1.37992,-0.20553 q 1.07551,-0.21362 1.90255,-0.56801 a 11.046785,11.046785 0 0 1 -0.0359,-0.0718 q -0.0708,-0.14393 -0.0845,-0.18582 l -0.17209,-0.49833 a 0.66867025,0.66867025 0 0 0 -0.009,-0.0274 q -0.0169,-0.0443 -0.0524,-0.12557 a 9.014379,9.014379 0 0 0 -0.0235,-0.0532 8.8665676,8.8665676 0 0 1 -0.62679,0.15274 q -1.04277,0.22031 -2.97136,0.4649 a 92.894136,92.894136 0 0 1 -0.42267,0.0524 l -0.18934,0.0344 v 7.66402 l 1.95921,2.04507 h -7.59539 l 2.23371,-2.04507 v -5.77379 l -0.13726,0.0173 a 20.003094,20.003094 0 0 0 -0.94951,0.23616 15.269965,15.269965 0 0 0 -0.85485,0.26218 l -0.1376,0.0513 -0.15449,-0.34348 q 0.75594,-0.29211 1.18565,-0.39522 l 0.9108,-0.22348 0.13726,-0.0344 v -0.89356 a 5.9740409,5.9740409 0 0 0 -0.79291,0.0577 q -0.40613,0.0545 -0.86962,0.16117 a 14.498179,14.498179 0 0 0 -0.8633,0.22805 l -0.18898,0.0686 q 0.032,-0.22523 0.30477,-1.00687 a 33.700629,33.700629 0 0 1 0.0387,-0.11014 q 0.0344,-0.0686 0.24071,-0.77319 l 0.0514,-0.1545 a 35.348725,35.348725 0 0 0 0.36531,0.0225 q 0.51557,0.0289 0.8376,0.0289 0.46419,0 0.85941,-0.0513 v -8.45481 a 10.291539,10.291539 0 0 0 -1.63261,-0.80768 z m -25.003,-2.01058 0.18899,0.0858 a 11.55603,11.55603 0 0 0 -1.32326,2.26504 10.711042,10.711042 0 0 0 -0.10308,0.24389 q -0.99774,2.45366 -1.35705,3.10123 a 2.8179172,2.8179172 0 0 1 -0.0349,0.0609 l -0.0859,0.10308 q -0.0524,-0.145 -0.0851,-0.2393 a 5.7678088,5.7678088 0 0 1 -0.018,-0.0528 35.702065,35.702065 0 0 0 -0.22981,-0.71443 q -0.32519,-0.97202 -0.55536,-1.42391 a 3.3408878,3.3408878 0 0 0 -0.005,-0.009 3.5108707,3.5108707 0 0 0 -0.43076,-0.64227 4.7940139,4.7940139 0 0 0 -0.49729,-0.50889 5.4947099,5.4947099 0 0 0 -1.83532,-1.10507 5.1543919,5.1543919 0 0 0 -1.72165,-0.28683 5.4496626,5.4496626 0 0 0 -1.44116,0.18195 4.2179015,4.2179015 0 0 0 -1.61748,0.84042 3.4626561,3.4626561 0 0 0 -0.86575,1.05403 3.2324928,3.2324928 0 0 0 -0.3544,1.51507 q 0,2.88689 4.34742,3.93494 l 2.90413,0.70458 a 12.464366,12.464366 0 0 1 2.56735,0.89636 q 3.56788,1.74946 3.6351,5.50632 a 8.1053393,8.1053393 0 0 1 10e-4,0.14466 6.0880668,6.0880668 0 0 1 -1.86523,4.49099 7.5770899,7.5770899 0 0 1 -0.25692,0.24319 7.3856389,7.3856389 0 0 1 -4.55398,1.89128 9.6830492,9.6830492 0 0 1 -0.69578,0.0246 15.114763,15.114763 0 0 1 -1.93844,-0.13195 q -1.15644,-0.14992 -2.44346,-0.46947 l -2.01059,-0.49833 a 14.182144,14.182144 0 0 0 -0.72075,-0.15415 q -0.74644,-0.13795 -1.28983,-0.13795 -1.04841,0 -2.16509,0.67007 l -0.1376,-0.24037 q 2.13094,-3.21349 2.99001,-6.11763 l 0.30935,0.0859 a 7.6059482,7.6059482 0 0 0 0.52402,1.97645 5.7600664,5.7600664 0 0 0 1.64107,2.21646 q 1.80434,1.495 4.72573,1.495 a 8.0873908,8.0873908 0 0 0 1.47143,-0.12556 q 0.85167,-0.15802 1.52808,-0.51312 a 4.323833,4.323833 0 0 0 0.66059,-0.42654 3.4031796,3.4031796 0 0 0 1.34156,-2.48394 4.4948718,4.4948718 0 0 0 0.0162,-0.38571 3.9367082,3.9367082 0 0 0 -1.38345,-3.02944 5.7994827,5.7994827 0 0 0 -0.50678,-0.40753 q -1.25922,-0.8925 -4.97209,-1.66675 a 50.166106,50.166106 0 0 0 -0.59582,-0.12038 15.060566,15.060566 0 0 1 -1.77057,-0.45187 q -1.91063,-0.62257 -2.93758,-1.66182 a 4.8644001,4.8644001 0 0 1 -1.25111,-2.27982 q -0.19322,-0.76615 -0.20834,-1.67238 a 9.2836067,9.2836067 0 0 1 -0.001,-0.15484 6.1443758,6.1443758 0 0 1 0.3734,-2.17987 5.4785209,5.4785209 0 0 1 1.577,-2.22772 6.7553293,6.7553293 0 0 1 3.13078,-1.50628 9.6721393,9.6721393 0 0 1 1.94724,-0.18652 q 2.0106,0 4.69126,0.72181 a 17.150689,17.150689 0 0 0 0.58631,0.15028 q 0.57506,0.13585 0.96887,0.17631 a 2.9731191,2.9731191 0 0 0 0.30056,0.0169 q 0.70034,0 1.50732,-0.40366 a 5.7079805,5.7079805 0 0 0 0.33151,-0.18053 z m 76.45225,-0.10309 h 20.68971 a 64.080079,64.080079 0 0 0 -0.0665,0.12677 q -0.0999,0.18969 -0.13972,0.26852 l -1.16841,2.06233 a 11.434261,11.434261 0 0 0 -0.4744,0.98435 q -0.21011,0.49094 -0.40859,1.05755 a 22.019664,22.019664 0 0 0 -0.23404,0.70738 l -0.0342,0.0859 -0.17209,-0.11998 -0.0513,-0.22348 a 9.245598,9.245598 0 0 0 -0.31357,-1.00687 q -0.44344,-1.16491 -1.10401,-1.70828 -0.91959,-0.75596 -2.80982,-0.75596 a 17.458981,17.458981 0 0 0 -1.54639,0.0686 h -0.20624 v 18.62774 l 2.02749,1.87297 h -7.853 l 2.4058,-2.01058 V 363.3257 l -1.22014,-0.0173 a 7.1150034,7.1150034 0 0 0 -0.86822,0.0492 q -0.93263,0.11505 -1.46932,0.49974 a 1.8219505,1.8219505 0 0 0 -0.17984,0.14711 2.1777535,2.1777535 0 0 0 -0.47299,0.6662 q -0.32589,0.68345 -0.41212,1.78254 h -0.44659 a 8.3622495,8.3622495 0 0 1 0.1471,-0.98225 q 0.227,-1.04981 0.7102,-1.62662 a 2.123204,2.123204 0 0 1 0.1823,-0.19215 2.4821743,2.4821743 0 0 1 0.81366,-0.48954 q 0.73273,-0.28049 1.83217,-0.2995 a 9.3666626,9.3666626 0 0 1 0.16365,-0.001 l 1.03116,0.0169 h 0.18898 v -0.84179 a 15.04684,15.04684 0 0 0 -1.16454,-0.0932 12.756821,12.756821 0 0 0 -0.50221,-0.009 q -2.0676,0 -3.05863,0.78445 a 2.4216421,2.4216421 0 0 0 -0.13762,0.11758 q -0.97978,0.90237 -1.08289,3.0502 h -0.20622 a 25.006156,25.006156 0 0 0 -0.80101,-2.195 q -0.46068,-1.10929 -1.06529,-2.31642 a 45.504771,45.504771 0 0 0 -0.41916,-0.81542 z m -55.09245,0.37834 0.27521,0.15449 -0.18899,0.3266 a 49.736045,49.736045 0 0 0 -2.39103,4.72116 45.523774,45.523774 0 0 0 -0.28998,0.67466 l -0.15451,0.39521 -0.22347,-0.12038 q -0.36882,-2.43783 -1.65091,-3.93284 a 5.9004872,5.9004872 0 0 0 -0.18758,-0.2087 4.8714388,4.8714388 0 0 0 -1.64176,-1.16735 4.6775245,4.6775245 0 0 0 -1.84693,-0.36178 4.3013094,4.3013094 0 0 0 -3.26664,1.46015 6.1405046,6.1405046 0 0 0 -0.37622,0.44731 q -1.83883,2.37132 -1.83883,8.04199 a 22.917441,22.917441 0 0 0 0.1654,2.84396 q 0.36355,2.90098 1.52738,4.80316 a 6.4477409,6.4477409 0 0 0 1.31904,1.5749 5.0597223,5.0597223 0 0 0 3.38066,1.19164 5.8286931,5.8286931 0 0 0 1.73151,-0.24529 4.6099536,4.6099536 0 0 0 2.10913,-1.36128 q 1.18495,-1.32678 1.57876,-3.59639 a 12.596692,12.596692 0 0 0 0.13129,-1.00054 1.5333665,1.5333665 0 0 1 0.0461,-0.26325 q 0.038,-0.13619 0.10069,-0.23192 a 0.48988895,0.48988895 0 0 1 0.43745,-0.22664 q 0.63736,0 0.66867,1.01005 a 3.4563214,3.4563214 0 0 1 10e-4,0.10694 8.1440518,8.1440518 0 0 1 -0.3104,2.18515 10.406621,10.406621 0 0 1 -0.44554,1.26905 5.7699204,5.7699204 0 0 1 -4.08665,3.48976 q -1.09027,0.28155 -2.42586,0.29034 a 13.114383,13.114383 0 0 1 -0.0862,3.6e-4 10.250363,10.250363 0 0 1 -3.2684,-0.49799 8.4016658,8.4016658 0 0 1 -3.82866,-2.63807 q -2.40967,-2.87424 -2.61098,-7.60349 a 20.635516,20.635516 0 0 1 -0.0183,-0.87701 14.703708,14.703708 0 0 1 0.52297,-4.00957 11.619377,11.619377 0 0 1 2.20942,-4.2559 9.5535384,9.5535384 0 0 1 2.48957,-2.18937 8.2401292,8.2401292 0 0 1 4.29814,-1.14448 9.5053236,9.5053236 0 0 1 1.78605,0.1809 q 0.83444,0.15978 1.7484,0.46102 a 18.446149,18.446149 0 0 1 0.84745,0.30337 q 1.28877,0.49833 2.13095,0.49833 a 2.8052476,2.8052476 0 0 0 1.63226,-0.49833 z m 38.87086,1.70124 -2.09645,-2.07958 h 7.71539 a 28.457198,28.457198 0 0 1 2.28016,0.0849 q 3.15437,0.2548 4.71378,1.27294 a 6.1500067,6.1500067 0 0 1 1.61291,1.46191 q 0.98505,1.30884 1.0315,3.0875 a 6.78278,6.78278 0 0 1 0.003,0.17597 5.6083838,5.6083838 0 0 1 -0.28612,1.81807 4.9618852,4.9618852 0 0 1 -0.7278,1.37853 5.3564007,5.3564007 0 0 1 -2.02572,1.63543 6.9094754,6.9094754 0 0 1 -0.80978,0.32342 8.7222756,8.7222756 0 0 1 -1.19446,0.29069 q -1.74348,0.31076 -4.59658,0.31076 h -2.11336 v 8.3172 l 2.09647,1.89022 h -7.99097 l 2.38891,-2.01058 v -6.89082 a 9.5384053,9.5384053 0 0 0 -0.0958,-0.008 q -0.11824,-0.008 -0.18229,-0.009 a 1.0089882,1.0089882 0 0 0 -0.0141,0 5.5137142,5.5137142 0 0 0 -2.37166,0.53282 l -0.15449,-0.30935 q 1.15116,-0.65317 2.06196,-0.65317 h 0.6187 l 0.1376,-0.0173 v -0.84181 q -0.39522,-0.0517 -0.53282,-0.0517 a 6.1387449,6.1387449 0 0 0 -1.22015,0.1144 q -0.74293,0.15062 -1.3215,0.50043 a 3.499609,3.499609 0 0 0 -0.39698,0.27873 l -0.17175,-0.2576 q 0.9115,-1.67345 2.78449,-1.89199 a 5.040366,5.040366 0 0 1 0.58349,-0.0327 h 0.27522 z m 4.88024,11.08373 v 7.09705 l 2.6979,3.19625 h -8.6093 l -0.46385,-0.4642 h 8.09373 l -2.19958,-2.54306 v -7.75023 a 51.979963,51.979963 0 0 0 1.94232,0.074 61.936814,61.936814 0 0 0 1.23668,0.012 20.133309,20.133309 0 0 0 2.31289,-0.12357 q 2.47866,-0.28753 3.98001,-1.24373 a 5.6062722,5.6062722 0 0 0 0.28857,-0.19638 5.0424776,5.0424776 0 0 0 1.99195,-3.17406 7.9501374,7.9501374 0 0 0 0.1559,-1.62031 7.3550209,7.3550209 0 0 0 -0.0789,-1.10541 q -0.0919,-0.60462 -0.29104,-1.11774 a 4.4969834,4.4969834 0 0 0 -0.0422,-0.10521 5.6171821,5.6171821 0 0 0 -0.36495,-0.71302 q -0.21292,-0.35614 -0.49974,-0.74292 a 13.840066,13.840066 0 0 0 -0.64755,-0.80381 q 1.04664,0.51488 1.68187,1.80893 a 5.9652426,5.9652426 0 0 1 0.003,0.004 6.221097,6.221097 0 0 1 0.57963,1.99862 7.818163,7.818163 0 0 1 0.0563,0.94845 7.5316906,7.5316906 0 0 1 -0.28225,2.12603 5.3324694,5.3324694 0 0 1 -2.60499,3.23566 6.9756385,6.9756385 0 0 1 -1.52,0.61165 q -1.58933,0.45434 -4.00358,0.57858 a 37.732711,37.732711 0 0 1 -1.93421,0.0468 37.23156,37.23156 0 0 1 -0.6187,-0.004 q -0.4832,-0.008 -0.85906,-0.0295 z m 24.60776,-10.20742 0.0686,17.26998 2.73239,3.23074 h -8.7814 l -0.39522,-0.4642 h 8.23133 l -2.30269,-2.62893 v -17.90593 l 0.92805,-0.0173 q 1.28208,0 1.98982,0.15767 a 2.6796081,2.6796081 0 0 1 0.37304,0.10867 1.8356759,1.8356759 0 0 1 0.85063,0.67396 2.5888097,2.5888097 0 0 1 0.22311,0.3829 5.324023,5.324023 0 0 0 -2.33998,-0.81824 6.7391404,6.7391404 0 0 0 -0.75314,-0.0412 6.6969085,6.6969085 0 0 0 -0.61201,0.0293 7.6795019,7.6795019 0 0 0 -0.21257,0.0225 z m -50.57328,22.88927 -0.1545,0.10309 -0.34384,-0.27486 q 3.28247,-2.14819 6.99429,-3.1621 -4.94922,-3.29937 -7.78474,-10.55092 l -0.10308,-0.29211 q 2.83023,-1.07303 4.13731,-2.75315 a 5.272289,5.272289 0 0 0 1.12125,-3.33033 4.931971,4.931971 0 0 0 -0.26007,-1.53266 q -0.2087,-0.63947 -0.58526,-1.31729 a 10.73251,10.73251 0 0 0 -0.51242,-0.8274 5.1607267,5.1607267 0 0 1 1.73045,3.75688 6.6694579,6.6694579 0 0 1 0.005,0.2643 q 0,3.95219 -5.03509,5.99727 a 18.729453,18.729453 0 0 0 1.97152,4.31081 24.288215,24.288215 0 0 0 1.86066,2.6145 16.911375,16.911375 0 0 0 2.64759,2.58916 20.978298,20.978298 0 0 0 1.70017,1.20854 27.147308,27.147308 0 0 0 -7.3895,3.19623 z m 15.89569,-25.2092 0.29211,0.34382 -1.75297,1.73538 v 17.51071 l 2.88688,3.23074 h -8.93554 l -0.4297,-0.4642 h 8.35133 l -2.35407,-2.59479 v -17.83696 z m -6.23799,1.51224 -2.38855,-2.1482 h 8.1451 l -2.30269,2.33719 v 17.88868 l 2.16544,1.8216 h -8.00785 l 2.38855,-1.97609 z m -18.7481,-0.53283 v 9.2625 a 5.1790271,5.1790271 0 0 0 0.71161,-0.0475 4.5342883,4.5342883 0 0 0 0.23367,-0.0387 v -8.45446 a 6.7313979,6.7313979 0 0 1 0.89497,-0.17562 q 0.45012,-0.0591 0.96289,-0.0757 a 12.685027,12.685027 0 0 1 0.41034,-0.007 q 3.3511,0 4.554,2.19956 a 14.494308,14.494308 0 0 0 -0.76475,-0.58173 q -0.4005,-0.28296 -0.76545,-0.49095 a 5.7847015,5.7847015 0 0 0 -0.70387,-0.34524 5.0604261,5.0604261 0 0 0 -1.02094,-0.28366 q -0.59054,-0.10282 -1.28173,-0.10282 a 9.0544992,9.0544992 0 0 0 -0.86788,0.0394 q -0.4276,0.0411 -0.80134,0.1253 a 5.2420228,5.2420228 0 0 0 -0.16963,0.0415 v 8.11062 l 0.18933,-0.0342 a 18.805119,18.805119 0 0 0 1.90079,-0.44342 q 1.98454,-0.58105 3.1255,-1.50698 a 4.3660648,4.3660648 0 0 0 1.26837,-1.61326 4.4825542,4.4825542 0 0 0 0.37269,-1.84939 3.916648,3.916648 0 0 0 -1.24549,-2.94461 4.9059282,4.9059282 0 0 0 -0.23227,-0.2087 5.2240744,5.2240744 0 0 0 -2.58775,-1.15786 7.143158,7.143158 0 0 0 -1.14132,-0.0879 8.0631075,8.0631075 0 0 0 -1.3662,0.10947 q -0.76229,0.13128 -1.39189,0.4195 a 4.7162369,4.7162369 0 0 0 -0.28365,0.14113 z m 33.68127,0.15486 v 8.6093 h 0.22313 l 0.44695,0.0169 a 0.84709963,0.84709963 0 0 0 0.0398,-0.001 q 0.0454,-0.003 0.11266,-0.008 a 5.1410185,5.1410185 0 0 0 0.071,-0.008 v -7.66439 h 1.89023 a 19.877807,19.877807 0 0 1 1.01848,0.0243 q 1.40668,0.0725 2.08309,0.36249 a 2.5279255,2.5279255 0 0 1 0.80557,0.56379 q 0.27028,0.27486 0.50785,0.65107 a 5.4345295,5.4345295 0 0 1 0.22452,0.3917 3.5312829,3.5312829 0 0 0 -0.93192,-0.89918 3.2926732,3.2926732 0 0 0 -0.6574,-0.32941 4.6088977,4.6088977 0 0 0 -0.7102,-0.1932 q -0.75243,-0.14712 -1.80682,-0.15802 a 16.527769,16.527769 0 0 0 -0.17244,-10e-4 h -1.76986 v 7.2519 q 2.98648,0 4.57616,-0.76792 a 4.313627,4.313627 0 0 0 0.41564,-0.22911 3.251849,3.251849 0 0 0 1.53371,-2.36815 4.9442886,4.9442886 0 0 0 0.056,-0.75911 6.3375864,6.3375864 0 0 0 -0.1249,-1.3032 q -0.16189,-0.76932 -0.53317,-1.34579 a 3.2268619,3.2268619 0 0 0 -0.75947,-0.82246 4.2720991,4.2720991 0 0 0 -1.17898,-0.61624 q -1.13955,-0.40261 -2.83304,-0.45752 a 16.956774,16.956774 0 0 0 -0.55043,-0.009 24.133365,24.133365 0 0 0 -0.6567,0.009 q -0.58914,0.0162 -1.3194,0.0591 z m -63.54726,9.48561 v -0.10309 q 2.33718,1.76987 2.33718,4.84575 a 7.1202825,7.1202825 0 0 1 -2.23547,5.27053 9.2213148,9.2213148 0 0 1 -0.30793,0.28859 q -2.54306,2.27699 -6.18627,2.27699 a 15.761966,15.761966 0 0 1 -1.76563,-0.0947 11.912537,11.912537 0 0 1 -1.5851,-0.28331 l -2.74964,-0.67043 a 8.1447557,8.1447557 0 0 0 -1.50416,-0.22454 9.5901392,9.5901392 0 0 0 -0.55782,-0.0158 4.236554,4.236554 0 0 0 -1.35529,0.21292 3.9254464,3.9254464 0 0 0 -0.44906,0.18229 l -0.20623,-0.49833 q 0.89355,-0.41246 1.8216,-0.41246 a 8.2788416,8.2788416 0 0 1 0.95796,0.059 q 0.48883,0.0571 1.02975,0.16928 a 14.886712,14.886712 0 0 1 0.36636,0.081 l 2.64653,0.63594 a 14.034333,14.034333 0 0 0 2.79011,0.36882 15.890421,15.890421 0 0 0 0.54339,0.009 8.9390656,8.9390656 0 0 0 3.34052,-0.60953 8.2816571,8.2816571 0 0 0 2.51069,-1.58159 7.5228923,7.5228923 0 0 0 1.71285,-2.21506 6.8285311,6.8285311 0 0 0 0.70176,-3.08609 q 0,-2.62928 -1.8561,-4.60538 z m 16.46232,-7.97371 v 0.22347 a 7.4454674,7.4454674 0 0 0 -0.96043,-0.66127 q -0.55147,-0.31499 -1.08007,-0.4628 a 3.391566,3.391566 0 0 0 -0.91503,-0.13022 3.6168022,3.6168022 0 0 0 -3.42323,2.29108 q -0.83936,1.73151 -0.99316,4.77114 a 28.312906,28.312906 0 0 0 -0.0342,1.42673 23.958807,23.958807 0 0 0 0.145,2.71727 q 0.24142,2.11264 0.88581,3.71816 a 8.3721036,8.3721036 0 0 0 0.72674,1.42848 q 0.88968,1.37676 2.17739,1.89656 v 0.1721 a 3.6973946,3.6973946 0 0 1 -1.94899,-1.1114 q -0.73167,-0.76017 -1.29018,-2.00777 -1.21135,-2.70636 -1.21135,-6.84789 a 24.155186,24.155186 0 0 1 0.1714,-3.01922 q 0.74362,-5.86494 4.70884,-5.86494 a 3.7382187,3.7382187 0 0 1 2.12356,0.67465 5.5833967,5.5833967 0 0 1 0.91783,0.78587 z m 5.10371,11.80555 0.49834,0.22348 q -0.27486,4.26188 -2.37977,6.48715 -2.10525,2.22526 -5.88571,2.22526 -2.86965,0 -5.34408,-1.76986 v -0.13761 a 8.6835632,8.6835632 0 0 0 3.34476,1.28455 11.671463,11.671463 0 0 0 1.96483,0.15908 8.6427391,8.6427391 0 0 0 2.63668,-0.38501 7.0294841,7.0294841 0 0 0 2.91399,-1.79732 6.8563337,6.8563337 0 0 0 1.43096,-2.10244 6.5737325,6.5737325 0 0 0 0.11546,-0.28647 q 0.34876,-0.92559 0.53774,-2.27207 a 20.46694,20.46694 0 0 0 0.13275,-1.23353 z m -25.3982,-10.82577 -0.11998,0.0686 a 7.7505921,7.7505921 0 0 0 -1.27012,-1.10295 q -1.33066,-0.90763 -2.78553,-0.90763 a 3.7125277,3.7125277 0 0 0 -1.02237,0.13444 2.9210333,2.9210333 0 0 0 -1.14272,0.62186 2.432552,2.432552 0 0 0 -0.85554,1.77092 3.071308,3.071308 0 0 0 -0.004,0.15344 2.1766976,2.1766976 0 0 0 0.28576,1.04348 q 0.37692,0.69506 1.25077,1.41018 a 9.0207137,9.0207137 0 0 0 0.19919,0.15837 l 0.1376,0.0859 -0.0858,0.13761 a 5.3820917,5.3820917 0 0 1 -1.03855,-0.59793 q -0.59336,-0.44555 -0.9006,-1.00583 a 2.7309902,2.7309902 0 0 1 -0.32941,-1.33488 3.0325956,3.0325956 0 0 1 0.19427,-1.10365 2.7338055,2.7338055 0 0 1 0.76827,-1.07868 3.3250508,3.3250508 0 0 1 1.55553,-0.75102 4.7598765,4.7598765 0 0 1 0.95339,-0.0908 5.8938005,5.8938005 0 0 1 1.34473,0.14712 4.6606317,4.6606317 0 0 1 1.24127,0.48003 q 1.10858,0.62715 1.62381,1.76142 z m -10.55092,6.27212 0.58421,0.32659 a 1.8455299,1.8455299 0 0 0 0.49164,0.54304 q 0.81261,0.631 2.65885,1.09942 a 18.213874,18.213874 0 0 0 0.16611,0.0415 l 2.76654,0.68732 a 50.305823,50.305823 0 0 1 1.21768,0.31955 q 1.82019,0.50396 2.53708,0.89179 a 2.8446641,2.8446641 0 0 1 1.3317,1.53794 l -0.11998,0.069 a 5.7526759,5.7526759 0 0 0 -0.77952,-0.75278 4.385773,4.385773 0 0 0 -0.89602,-0.55324 q -0.90235,-0.41246 -3.46267,-1.01391 -3.71182,-0.85907 -4.98335,-1.48656 a 3.690004,3.690004 0 0 1 -0.69401,-0.4364 q -0.43603,-0.35334 -0.65459,-0.80275 a 2.1267234,2.1267234 0 0 1 -0.16364,-0.47054 z m 36.68817,-9.41699 0.39523,0.24073 -0.18899,0.32623 a 64.08219,64.08219 0 0 0 -1.4943,2.68841 q -0.86751,1.6583 -1.49571,3.13711 l -0.46385,-0.22347 0.18899,-0.42936 q 0.85413,-1.79379 1.5045,-2.97593 a 31.287785,31.287785 0 0 1 0.008,-0.0141 l 1.37466,-2.4403 z m -21.68638,-0.42971 0.4466,0.22347 -0.15449,0.25797 a 26.890751,26.890751 0 0 0 -0.76404,1.37149 21.58362,21.58362 0 0 0 -0.43887,0.89671 940.00082,940.00082 0 0 1 -0.28435,0.59652 q -0.87772,1.83956 -1.05263,2.18163 a 3.2314371,3.2314371 0 0 1 -0.0204,0.0402 l -0.0862,0.12037 -0.41211,-0.17209 0.0686,-0.15449 q 0.49834,-1.13428 1.44326,-2.95587 l 1.16877,-2.2682 z m 97.07332,0.0517 0.34384,0.34348 a 9.2012546,9.2012546 0 0 0 -0.67676,1.00864 q -0.87632,1.48973 -1.81491,4.0092 l -0.069,0.1721 -0.37797,-0.32659 0.0513,-0.15486 q 1.27188,-3.55697 2.45754,-4.94886 z m -110.39112,15.44839 0.46421,-0.0859 a 6.5188312,6.5188312 0 0 0 0.89179,2.25235 q 0.88229,1.36374 2.48534,2.11794 a 7.3233471,7.3233471 0 0 0 0.025,0.012 v 0.1376 a 5.4222119,5.4222119 0 0 1 -2.19676,-1.1948 q -0.95585,-0.87808 -1.41688,-2.26082 a 7.5939826,7.5939826 0 0 1 -0.25268,-0.97801 z"
        vector-effect="non-scaling-stroke"
        id="path1-7"
        style="font-size:12px;fill:#ffffff;fill-rule:evenodd;stroke:#ffffff;stroke-width:0.0879829mm;stroke-linecap:round" /></g></g></svg>
