<svg xmlns="http://www.w3.org/2000/svg" xml:space="preserve" width="16" height="16" viewBox="0 0 79.307 79.307"><path fill="none" d="M20.76 22.526c-2.468 0-4.555.637-5.99 2.072s-2.072 3.522-2.072 5.99v14.215c0 2.47.637 4.556 2.072 5.99 1.435 1.436 3.522 2.073 5.99 2.073h15.098l1.318-1.316V34.684l-1.318-1.318H24.776l-1.316 1.318v5.221l1.316 1.316h3.983v3.791h-7.645V30.38h13.94l1.32-1.317V25.93l-.51-1.04-2.691-2.089-.807-.275zm27.928 0c-2.468 0-4.555.637-5.99 2.072s-2.072 3.522-2.072 5.99v2.25c0 2.025.447 3.79 1.465 5.153 1.015 1.363 2.566 2.232 4.406 2.601h.002l.004.002 7.78 1.596c.005.025-.005-.03-.005.043v2.78H41.942l-1.316 1.316v3.133l.507 1.04 2.692 2.09.808.274h9.999c2.468 0 4.555-.637 5.99-2.072s2.072-3.522 2.072-5.99v-2.57c0-2.027-.448-3.79-1.465-5.155s-2.57-2.233-4.412-2.602l-7.783-1.556c-.003-.016.008.036.008-.043V30.38h11.53l1.319-1.317V25.93l-.51-1.04-2.69-2.088-.807-.276zM20.76 25.161h11.156l1.824 1.416v1.168H21.003c-.621 0-1.325.176-1.836.687s-.688 1.215-.688 1.836v14.856c0 .62.176 1.324.688 1.836.51.511 1.215.687 1.836.687h9.074l1.318-1.318v-6.424l-1.318-1.318h-3.983v-2.584h8.448v14.228H20.76c-2.03 0-3.313-.487-4.126-1.3s-1.301-2.099-1.301-4.128V30.59c0-2.03.487-3.314 1.3-4.127.814-.814 2.098-1.3 4.127-1.3m27.928 0h8.744l1.825 1.415v1.168h-10.33c-.62 0-1.321.176-1.833.687-.51.512-.687 1.215-.687 1.836v2.61c0 .57.134 1.182.518 1.69.383.506.978.814 1.544.927l7.83 1.566c1.37.274 2.228.804 2.817 1.594s.943 1.937.943 3.578v2.57c0 2.03-.487 3.314-1.3 4.127-.814.814-2.098 1.301-4.127 1.301h-9.547l-1.825-1.416v-1.168h11.13c.62 0 1.324-.176 1.835-.687.512-.512.688-1.215.688-1.836v-2.89c0-.578-.128-1.193-.52-1.71-.391-.517-1.014-.823-1.593-.916l.056.01-7.83-1.605-.008-.002c-1.37-.274-2.225-.804-2.814-1.594-.59-.79-.944-1.939-.944-3.58V30.59c0-2.03.487-3.313 1.3-4.127.815-.814 2.099-1.3 4.128-1.3" style="color:#000;-inkscape-font-specification:&quot;Oxanium Bold&quot;;fill:#db9330;fill-opacity:0;stroke:none;stroke-width:2;stroke-miterlimit:0;stroke-dasharray:none;stroke-opacity:0"/><path d="M37.654 0A37.653 37.653 0 0 0 0 37.654a37.653 37.653 0 0 0 37.654 37.653 37.7 37.7 0 0 0 8.98-1.171 19.6 19.6 0 0 1-1.903-2.81 34.5 34.5 0 0 1-7.077.827 34.5 34.5 0 0 1-34.5-34.5 34.5 34.5 0 0 1 34.5-34.5 34.5 34.5 0 0 1 34.5 34.5 34.5 34.5 0 0 1-.829 7.077 19.6 19.6 0 0 1 2.81 1.903 37.7 37.7 0 0 0 1.172-8.98A37.653 37.653 0 0 0 37.654 0" style="fill:#6c707e;fill-opacity:1;stroke:none;stroke-width:.977941;stroke-linecap:butt;stroke-linejoin:miter;stroke-miterlimit:0;stroke-dasharray:none;stroke-opacity:1"/><path d="M20.72 23.8q-6.746.001-6.746 6.746V44.76h-.001q0 6.746 6.746 6.746h15.098V34.641H24.735v5.22h5.3v6.425H20.96q-1.205 0-1.205-1.204V30.225q0-1.205 1.205-1.205h14.054v-3.132l-2.69-2.088zm27.925 0q-6.746.001-6.746 6.746v2.248q0 5.501 4.82 6.465l7.83 1.606q1.002.162 1.003 1.325v1.018a19.6 19.6 0 0 1 5.782-1.014v-.004q0-5.5-4.82-6.463l-7.83-1.567q-1.002-.201-1.002-1.326v-2.61q0-1.203 1.204-1.204H60.53v-3.132L57.84 23.8zM41.9 46.286v3.132l2.691 2.088h.49a19.6 19.6 0 0 1 4.72-5.22z" style="color:#000;-inkscape-font-specification:&quot;Oxanium Bold&quot;;fill:#6c707e;fill-opacity:1;stroke-width:.999999;stroke-miterlimit:0;-inkscape-stroke:none"/><path d="M79.307 61.736a17.571 17.57 0 0 1-17.571 17.57 17.571 17.57 0 0 1-17.571-17.57 17.571 17.57 0 0 1 17.571-17.571 17.571 17.57 0 0 1 17.571 17.57" style="fill:#db5c5c;fill-opacity:1;stroke-width:1.46424"/><path fill="#fff" d="M63.2 52.95a1.464 1.464 0 1 0-2.928 0v8.786a1.464 1.464 0 1 0 2.928 0zm-1.464 19.035a2.196 2.196 0 1 0 0-4.392 2.196 2.196 0 0 0 0 4.392" style="fill:#fff;fill-opacity:1;stroke-width:1.46424"/></svg>