<svg xmlns="http://www.w3.org/2000/svg" xml:space="preserve" width="16" height="16" viewBox="0 0 76.909 77.411"><g style="display:inline"><path d="M20.719 23.8q-6.745 0-6.745 6.747V44.76h-.001q0 6.746 6.746 6.746h15.098V34.641H24.735v5.22h5.3v6.425H20.96q-1.205 0-1.205-1.204V30.224q0-1.204 1.205-1.204h14.054v-3.132l-2.69-2.088zm27.926 0q-6.747 0-6.746 6.747v2.247q0 5.501 4.819 6.465l7.83 1.606q1.005.162 1.004 1.325v2.892q0 .6-.3.901a17.2 17.2 0 0 1 6.082-1.27V42.19q0-5.5-4.819-6.464l-7.83-1.566q-1.003-.201-1.003-1.326v-2.61q0-1.204 1.204-1.204h11.645v-3.132L57.84 23.8zm5.947 22.47a2 2 0 0 1-.245.016h-3.182a2.8 2.8 0 0 1 .229 1.013l.019.875c1-.76 2.067-1.393 3.179-1.904m-12.693.016v3.132l2.691 2.088h1.3l-.088-4.09a2.8 2.8 0 0 1 .222-1.13zm16.28 4.545q-.412.136-.814.303.43-.129.814-.303" style="color:#000;-inkscape-font-specification:&quot;Oxanium Bold&quot;;fill:#6c707e;fill-opacity:1;stroke-width:.999999;stroke-miterlimit:0;-inkscape-stroke:none"/><path d="M37.654 0C16.858 0 0 16.858 0 37.654c0 20.795 16.858 37.653 37.654 37.653a37.7 37.7 0 0 0 11.618-1.948 17 17 0 0 1-1.996-2.598 34.5 34.5 0 0 1-9.622 1.392c-19.054 0-34.5-15.446-34.5-34.5 0-19.053 15.446-34.5 34.5-34.5s34.5 15.447 34.5 34.5a34.5 34.5 0 0 1-1.434 9.6 17 17 0 0 1 2.673 2.052 37.7 37.7 0 0 0 1.914-11.651C75.307 16.858 58.45 0 37.654 0" style="fill:#6c707e;fill-opacity:1;stroke:none;stroke-width:.977941;stroke-linecap:butt;stroke-linejoin:miter;stroke-miterlimit:0;stroke-dasharray:none;stroke-opacity:1"/><g style="fill:none"><path d="M8 2C4.692 2 2 4.692 2 8v1a.5.5 0 0 0 .5.5A.5.5 0 0 0 3 9V8c0-2.767 2.233-5 5-5 1.008 0 1.942.297 2.727.809a.5.5 0 0 0 .691-.147.5.5 0 0 0-.145-.691A6 6 0 0 0 8 2M13.5 6.5a.5.5 0 0 0-.5.5v1c0 2.767-2.233 5-5 5a4.97 4.97 0 0 1-2.727-.809.5.5 0 0 0-.691.147.5.5 0 0 0 .145.691A6 6 0 0 0 8 14c3.308 0 6-2.692 6-6V7a.5.5 0 0 0-.5-.5" style="color:#000;fill:#3574f0;stroke-linecap:round;-inkscape-stroke:none" transform="rotate(43.774 -9.804 92.269)scale(2.59118)"/><path d="M.5 7a.5.5 0 0 0-.354.146.5.5 0 0 0 0 .708L2.5 10.207l2.354-2.353a.5.5 0 0 0 0-.708.5.5 0 0 0-.708 0L2.5 8.793.854 7.146A.5.5 0 0 0 .5 7M13.5 5.793l-2.354 2.353a.5.5 0 0 0 0 .708.5.5 0 0 0 .708 0L13.5 7.207l1.646 1.647a.5.5 0 0 0 .708 0 .5.5 0 0 0 0-.708z" style="color:#000;fill:#3574f0;stroke-linecap:round;-inkscape-stroke:none" transform="rotate(43.774 -9.804 92.269)scale(2.59118)"/></g></g></svg>